<?plantuml 1.2026.2?><svg xmlns="http://www.w3.org/2000/svg" xmlns:xlink="http://www.w3.org/1999/xlink" contentStyleType="text/css" data-diagram-type="SEQUENCE" height="1993px" preserveAspectRatio="none" style="width:1607px;height:1993px;background:#FFFFFF;" version="1.1" viewBox="0 0 1607 1993" width="1607px" zoomAndPan="magnify"><title>PlatePal - Write or Update a Review</title><defs/><g><text fill="#000000" font-family="sans-serif" font-size="14" font-weight="bold" lengthAdjust="spacing" textLength="283.2334" x="663.29" y="27.9951">PlatePal - Write or Update a Review</text><g><title>menu .</title><rect fill="#FFFFFF" height="1824.9219" style="stroke:#181818;stroke-width:1;" width="10" x="392.0503" y="152.0234"/></g><g><title>rvc .</title><rect fill="#FFFFFF" height="203.9297" style="stroke:#181818;stroke-width:1;" width="10" x="649.0327" y="181.1563"/></g><g><title>rvc .</title><rect fill="#FFFFFF" height="169.7969" style="stroke:#181818;stroke-width:1;" width="10" x="649.0327" y="545.75"/></g><g><title>rvs .</title><rect fill="#FFFFFF" height="145.6641" style="stroke:#181818;stroke-width:1;" width="10" x="908.1587" y="210.2891"/></g><g><title>rvs .</title><rect fill="#FFFFFF" height="111.5313" style="stroke:#181818;stroke-width:1;" width="10" x="908.1587" y="574.8828"/></g><g><title>auth .</title><rect fill="#FFFFFF" height="29.1328" style="stroke:#181818;stroke-width:1;" width="10" x="1073.062" y="239.4219"/></g><g><title>auth .</title><rect fill="#FFFFFF" height="29.1328" style="stroke:#181818;stroke-width:1;" width="10" x="1073.062" y="788.6172"/></g><g><title>user .</title><rect fill="#FFFFFF" height="29.1328" style="stroke:#181818;stroke-width:1;" width="10" x="1151.1904" y="846.8828"/></g><g><title>review .</title><rect fill="#FFFFFF" height="53.2656" style="stroke:#181818;stroke-width:1;" width="10" x="1214.9292" y="1113.8828"/></g><g><title>review .</title><rect fill="#FFFFFF" height="73.5938" style="stroke:#181818;stroke-width:1;" width="10" x="1214.9292" y="1605.4844"/></g><g><title>restRepo .</title><rect fill="#FFFFFF" height="29.1328" style="stroke:#181818;stroke-width:1;" width="10" x="1334.9893" y="604.0156"/></g><g><title>reviewRepo .</title><rect fill="#FFFFFF" height="29.1328" style="stroke:#181818;stroke-width:1;" width="10" x="1489.9878" y="297.6875"/></g><g><title>reviewRepo .</title><rect fill="#FFFFFF" height="29.1328" style="stroke:#181818;stroke-width:1;" width="10" x="1489.9878" y="1031.4844"/></g><g><title>reviewRepo .</title><rect fill="#FFFFFF" height="14" style="stroke:#181818;stroke-width:1;" width="10" x="1489.9878" y="1327.6172"/></g><g><title>reviewRepo .</title><rect fill="#FFFFFF" height="29.1328" style="stroke:#181818;stroke-width:1;" width="10" x="1489.9878" y="1479.9531"/></g><g><title>reviewRepo .</title><rect fill="#FFFFFF" height="14" style="stroke:#181818;stroke-width:1;" width="10" x="1489.9878" y="1839.5469"/></g><rect fill="none" height="46.2656" style="stroke:#000000;stroke-width:1.5;" width="411.9922" x="40" y="442.2188"/><rect fill="none" height="1321.7969" style="stroke:#000000;stroke-width:1.5;" width="1590.8135" x="10" y="648.1484"/><rect fill="none" height="1071.9297" style="stroke:#000000;stroke-width:1.5;" width="1570.8135" x="20" y="891.0156"/><rect fill="none" height="880.3281" style="stroke:#000000;stroke-width:1.5;" width="1550.8135" x="30" y="1075.6172"/><rect fill="none" height="308.1328" style="stroke:#000000;stroke-width:1.5;" width="1530.8135" x="40" y="1128.8828"/><rect fill="none" height="308.1328" style="stroke:#000000;stroke-width:1.5;" width="1530.8135" x="40" y="1640.8125"/><g class="participant-lifeline" data-entity-uid="part1" data-qualified-name="User" id="part1-lifeline"><g><title>User</title><rect fill="#000000" fill-opacity="0.00000" height="1866.0547" width="8" x="64.9551" y="120.8906"/><line style="stroke:#181818;stroke-width:0.5;stroke-dasharray:5,5;" x1="68" x2="68" y1="120.8906" y2="1986.9453"/></g></g><g class="participant-lifeline" data-entity-uid="part2" data-qualified-name="menu" id="part2-lifeline"><g><title>menu .</title><rect fill="#000000" fill-opacity="0.00000" height="1866.0547" width="8" x="393.0503" y="120.8906"/><line style="stroke:#181818;stroke-width:0.5;stroke-dasharray:5,5;" x1="396.1084" x2="396.1084" y1="120.8906" y2="1986.9453"/></g></g><g class="participant-lifeline" data-entity-uid="part3" data-qualified-name="rvc" id="part3-lifeline"><g><title>rvc .</title><rect fill="#000000" fill-opacity="0.00000" height="1866.0547" width="8" x="650.0327" y="120.8906"/><line style="stroke:#181818;stroke-width:0.5;stroke-dasharray:5,5;" x1="653.1567" x2="653.1567" y1="120.8906" y2="1986.9453"/></g></g><g class="participant-lifeline" data-entity-uid="part4" data-qualified-name="rvs" id="part4-lifeline"><g><title>rvs .</title><rect fill="#000000" fill-opacity="0.00000" height="1866.0547" width="8" x="909.1587" y="120.8906"/><line style="stroke:#181818;stroke-width:0.5;stroke-dasharray:5,5;" x1="912.9985" x2="912.9985" y1="120.8906" y2="1986.9453"/></g></g><g class="participant-lifeline" data-entity-uid="part5" data-qualified-name="auth" id="part5-lifeline"><g><title>auth .</title><rect fill="#000000" fill-opacity="0.00000" height="1866.0547" width="8" x="1074.062" y="120.8906"/><line style="stroke:#181818;stroke-width:0.5;stroke-dasharray:5,5;" x1="1077.7852" x2="1077.7852" y1="120.8906" y2="1986.9453"/></g></g><g class="participant-lifeline" data-entity-uid="part6" data-qualified-name="user" id="part6-lifeline"><g><title>user .</title><rect fill="#000000" fill-opacity="0.00000" height="1866.0547" width="8" x="1152.1904" y="120.8906"/><line style="stroke:#181818;stroke-width:0.5;stroke-dasharray:5,5;" x1="1155.3389" x2="1155.3389" y1="120.8906" y2="1986.9453"/></g></g><g class="participant-lifeline" data-entity-uid="part7" data-qualified-name="review" id="part7-lifeline"><g><title>review .</title><rect fill="#000000" fill-opacity="0.00000" height="380.4297" width="8" x="1215.9292" y="1606.5156"/><line style="stroke:#181818;stroke-width:0.5;stroke-dasharray:5,5;" x1="1219.042" x2="1219.042" y1="1606.5156" y2="1986.9453"/></g></g><g class="participant-lifeline" data-entity-uid="part8" data-qualified-name="restRepo" id="part8-lifeline"><g><title>restRepo .</title><rect fill="#000000" fill-opacity="0.00000" height="1866.0547" width="8" x="1335.9893" y="120.8906"/><line style="stroke:#181818;stroke-width:0.5;stroke-dasharray:5,5;" x1="1339.8164" x2="1339.8164" y1="120.8906" y2="1986.9453"/></g></g><g class="participant-lifeline" data-entity-uid="part9" data-qualified-name="reviewRepo" id="part9-lifeline"><g><title>reviewRepo .</title><rect fill="#000000" fill-opacity="0.00000" height="1866.0547" width="8" x="1490.9878" y="120.8906"/><line style="stroke:#181818;stroke-width:0.5;stroke-dasharray:5,5;" x1="1494.1621" x2="1494.1621" y1="120.8906" y2="1986.9453"/></g></g><g class="participant participant-head" data-entity-uid="part1" data-qualified-name="User" id="part1-head"><text fill="#000000" font-family="sans-serif" font-size="14" lengthAdjust="spacing" textLength="31.9102" x="50" y="117.5889">User</text><ellipse cx="68.9551" cy="53.0938" fill="#E2E2F0" rx="8" ry="8" style="stroke:#181818;stroke-width:0.5;"/><path d="M68.9551,61.0938 L68.9551,88.0938 M55.9551,69.0938 L81.9551,69.0938 M68.9551,88.0938 L55.9551,103.0938 M68.9551,88.0938 L81.9551,103.0938" fill="none" style="stroke:#181818;stroke-width:0.5;"/></g><g class="participant participant-head" data-entity-uid="part2" data-qualified-name="menu" id="part2-head"><text fill="#000000" font-family="sans-serif" font-size="14" lengthAdjust="spacing" textLength="49.1641" x="369.4683" y="101.292">menu :</text><text fill="#000000" font-family="sans-serif" font-size="14" lengthAdjust="spacing" textLength="83.8838" x="352.1084" y="117.5889">RatingMenu</text><path d="M376.5503,60.2969 L376.5503,84.2969 M376.5503,72.2969 L393.5503,72.2969" fill="none" style="stroke:#181818;stroke-width:0.5;"/><ellipse cx="405.5503" cy="72.2969" fill="#E2E2F0" rx="12" ry="12" style="stroke:#181818;stroke-width:0.5;"/></g><g class="participant participant-head" data-entity-uid="part3" data-qualified-name="rvc" id="part3-head"><text fill="#000000" font-family="sans-serif" font-size="14" lengthAdjust="spacing" textLength="30.9053" x="635.5801" y="101.292">rvc :</text><text fill="#000000" font-family="sans-serif" font-size="14" lengthAdjust="spacing" textLength="119.752" x="591.1567" y="117.5889">ReviewController</text><ellipse cx="654.0327" cy="72.2969" fill="#E2E2F0" rx="12" ry="12" style="stroke:#181818;stroke-width:0.5;"/><polygon fill="#181818" points="650.0327,60.2969,656.0327,55.2969,654.0327,60.2969,656.0327,65.2969,650.0327,60.2969" style="stroke:#181818;stroke-width:1;"/></g><g class="participant participant-head" data-entity-uid="part4" data-qualified-name="rvs" id="part4-head"><text fill="#000000" font-family="sans-serif" font-size="14" lengthAdjust="spacing" textLength="30.502" x="894.9077" y="101.292">rvs :</text><text fill="#000000" font-family="sans-serif" font-size="14" lengthAdjust="spacing" textLength="102.3203" x="858.9985" y="117.5889">ReviewService</text><ellipse cx="913.1587" cy="72.2969" fill="#E2E2F0" rx="12" ry="12" style="stroke:#181818;stroke-width:0.5;"/><polygon fill="#181818" points="909.1587,60.2969,915.1587,55.2969,913.1587,60.2969,915.1587,65.2969,909.1587,60.2969" style="stroke:#181818;stroke-width:1;"/></g><g class="participant participant-head" data-entity-uid="part5" data-qualified-name="auth" id="part5-head"><text fill="#000000" font-family="sans-serif" font-size="14" lengthAdjust="spacing" textLength="40.9814" x="1054.5713" y="101.292">auth :</text><text fill="#000000" font-family="sans-serif" font-size="14" lengthAdjust="spacing" textLength="84.5537" x="1032.7852" y="117.5889">AuthService</text><ellipse cx="1078.062" cy="72.2969" fill="#E2E2F0" rx="12" ry="12" style="stroke:#181818;stroke-width:0.5;"/><polygon fill="#181818" points="1074.062,60.2969,1080.062,55.2969,1078.062,60.2969,1080.062,65.2969,1074.062,60.2969" style="stroke:#181818;stroke-width:1;"/></g><g class="participant participant-head" data-entity-uid="part6" data-qualified-name="user" id="part6-head"><text fill="#000000" font-family="sans-serif" font-size="14" lengthAdjust="spacing" textLength="39.7031" x="1133.3389" y="101.292">user :</text><text fill="#000000" font-family="sans-serif" font-size="14" lengthAdjust="spacing" textLength="31.9102" x="1137.2354" y="117.5889">User</text><ellipse cx="1156.1904" cy="72.2969" fill="#E2E2F0" rx="12" ry="12" style="stroke:#181818;stroke-width:0.5;"/><line style="stroke:#181818;stroke-width:0.5;" x1="1144.1904" x2="1168.1904" y1="86.2969" y2="86.2969"/></g><g class="participant participant-head" data-entity-uid="part8" data-qualified-name="restRepo" id="part8-head"><text fill="#000000" font-family="sans-serif" font-size="14" lengthAdjust="spacing" textLength="72.1123" x="1300.9331" y="101.292">restRepo :</text><text fill="#000000" font-family="sans-serif" font-size="14" lengthAdjust="spacing" textLength="152.3457" x="1260.8164" y="117.5889">RestaurantRepository</text><path d="M1321.9893,52.2969 C1321.9893,42.2969 1339.9893,42.2969 1339.9893,42.2969 C1339.9893,42.2969 1357.9893,42.2969 1357.9893,52.2969 L1357.9893,78.2969 C1357.9893,88.2969 1339.9893,88.2969 1339.9893,88.2969 C1339.9893,88.2969 1321.9893,88.2969 1321.9893,78.2969 L1321.9893,52.2969" fill="#E2E2F0" style="stroke:#181818;stroke-width:0.5;"/><path d="M1321.9893,52.2969 C1321.9893,62.2969 1339.9893,62.2969 1339.9893,62.2969 C1339.9893,62.2969 1357.9893,62.2969 1357.9893,52.2969" fill="none" style="stroke:#181818;stroke-width:0.5;"/></g><g class="participant participant-head" data-entity-uid="part9" data-qualified-name="reviewRepo" id="part9-head"><text fill="#000000" font-family="sans-serif" font-size="14" lengthAdjust="spacing" textLength="91.5674" x="1446.2041" y="101.292">reviewRepo :</text><text fill="#000000" font-family="sans-serif" font-size="14" lengthAdjust="spacing" textLength="125.6514" x="1429.1621" y="117.5889">ReviewRepository</text><path d="M1476.9878,52.2969 C1476.9878,42.2969 1494.9878,42.2969 1494.9878,42.2969 C1494.9878,42.2969 1512.9878,42.2969 1512.9878,52.2969 L1512.9878,78.2969 C1512.9878,88.2969 1494.9878,88.2969 1494.9878,88.2969 C1494.9878,88.2969 1476.9878,88.2969 1476.9878,78.2969 L1476.9878,52.2969" fill="#E2E2F0" style="stroke:#181818;stroke-width:0.5;"/><path d="M1476.9878,52.2969 C1476.9878,62.2969 1494.9878,62.2969 1494.9878,62.2969 C1494.9878,62.2969 1512.9878,62.2969 1512.9878,52.2969" fill="none" style="stroke:#181818;stroke-width:0.5;"/></g><g><title>menu .</title><rect fill="#FFFFFF" height="1824.9219" style="stroke:#181818;stroke-width:1;" width="10" x="392.0503" y="152.0234"/></g><g><title>rvc .</title><rect fill="#FFFFFF" height="203.9297" style="stroke:#181818;stroke-width:1;" width="10" x="649.0327" y="181.1563"/></g><g><title>rvc .</title><rect fill="#FFFFFF" height="169.7969" style="stroke:#181818;stroke-width:1;" width="10" x="649.0327" y="545.75"/></g><g><title>rvs .</title><rect fill="#FFFFFF" height="145.6641" style="stroke:#181818;stroke-width:1;" width="10" x="908.1587" y="210.2891"/></g><g><title>rvs .</title><rect fill="#FFFFFF" height="111.5313" style="stroke:#181818;stroke-width:1;" width="10" x="908.1587" y="574.8828"/></g><g><title>auth .</title><rect fill="#FFFFFF" height="29.1328" style="stroke:#181818;stroke-width:1;" width="10" x="1073.062" y="239.4219"/></g><g><title>auth .</title><rect fill="#FFFFFF" height="29.1328" style="stroke:#181818;stroke-width:1;" width="10" x="1073.062" y="788.6172"/></g><g><title>user .</title><rect fill="#FFFFFF" height="29.1328" style="stroke:#181818;stroke-width:1;" width="10" x="1151.1904" y="846.8828"/></g><g><title>review .</title><rect fill="#FFFFFF" height="53.2656" style="stroke:#181818;stroke-width:1;" width="10" x="1214.9292" y="1113.8828"/></g><g><title>review .</title><rect fill="#FFFFFF" height="73.5938" style="stroke:#181818;stroke-width:1;" width="10" x="1214.9292" y="1605.4844"/></g><g><title>restRepo .</title><rect fill="#FFFFFF" height="29.1328" style="stroke:#181818;stroke-width:1;" width="10" x="1334.9893" y="604.0156"/></g><g><title>reviewRepo .</title><rect fill="#FFFFFF" height="29.1328" style="stroke:#181818;stroke-width:1;" width="10" x="1489.9878" y="297.6875"/></g><g><title>reviewRepo .</title><rect fill="#FFFFFF" height="29.1328" style="stroke:#181818;stroke-width:1;" width="10" x="1489.9878" y="1031.4844"/></g><g><title>reviewRepo .</title><rect fill="#FFFFFF" height="14" style="stroke:#181818;stroke-width:1;" width="10" x="1489.9878" y="1327.6172"/></g><g><title>reviewRepo .</title><rect fill="#FFFFFF" height="29.1328" style="stroke:#181818;stroke-width:1;" width="10" x="1489.9878" y="1479.9531"/></g><g><title>reviewRepo .</title><rect fill="#FFFFFF" height="14" style="stroke:#181818;stroke-width:1;" width="10" x="1489.9878" y="1839.5469"/></g><g class="message" data-entity-1="part1" data-entity-2="part2" id="msg1"><polygon fill="#181818" points="380.0503,148.0234,390.0503,152.0234,380.0503,156.0234,384.0503,152.0234" style="stroke:#181818;stroke-width:1;"/><line style="stroke:#181818;stroke-width:1;" x1="68.9551" x2="386.0503" y1="152.0234" y2="152.0234"/><text fill="#000000" font-family="sans-serif" font-size="13" lengthAdjust="spacing" textLength="124.8521" x="75.9551" y="146.9575">enter restaurant ID</text></g><g class="message" data-entity-1="part2" data-entity-2="part3" id="msg2"><polygon fill="#181818" points="637.0327,177.1563,647.0327,181.1563,637.0327,185.1563,641.0327,181.1563" style="stroke:#181818;stroke-width:1;"/><line style="stroke:#181818;stroke-width:1;" x1="402.0503" x2="643.0327" y1="181.1563" y2="181.1563"/><text fill="#000000" font-family="sans-serif" font-size="13" lengthAdjust="spacing" textLength="177.5186" x="409.0503" y="176.0903">getMyReview(restaurantId)</text></g><g class="message" data-entity-1="part3" data-entity-2="part4" id="msg3"><polygon fill="#181818" points="896.1587,206.2891,906.1587,210.2891,896.1587,214.2891,900.1587,210.2891" style="stroke:#181818;stroke-width:1;"/><line style="stroke:#181818;stroke-width:1;" x1="659.0327" x2="902.1587" y1="210.2891" y2="210.2891"/><text fill="#000000" font-family="sans-serif" font-size="13" lengthAdjust="spacing" textLength="177.5186" x="666.0327" y="205.2231">getMyReview(restaurantId)</text></g><g class="message" data-entity-1="part4" data-entity-2="part5" id="msg4"><polygon fill="#181818" points="1061.062,235.4219,1071.062,239.4219,1061.062,243.4219,1065.062,239.4219" style="stroke:#181818;stroke-width:1;"/><line style="stroke:#181818;stroke-width:1;" x1="918.1587" x2="1067.062" y1="239.4219" y2="239.4219"/><text fill="#000000" font-family="sans-serif" font-size="13" lengthAdjust="spacing" textLength="135.9033" x="925.1587" y="234.356">requireCurrentUser()</text></g><g class="message" data-entity-1="part5" data-entity-2="part4" id="msg5"><polygon fill="#181818" points="929.1587,264.5547,919.1587,268.5547,929.1587,272.5547,925.1587,268.5547" style="stroke:#181818;stroke-width:1;"/><line style="stroke:#181818;stroke-width:1;stroke-dasharray:2,2;" x1="923.1587" x2="1077.062" y1="268.5547" y2="268.5547"/><text fill="#000000" font-family="sans-serif" font-size="13" lengthAdjust="spacing" textLength="29.6309" x="935.1587" y="263.4888">User</text></g><g class="message" data-entity-1="part4" data-entity-2="part9" id="msg6"><polygon fill="#181818" points="1477.9878,293.6875,1487.9878,297.6875,1477.9878,301.6875,1481.9878,297.6875" style="stroke:#181818;stroke-width:1;"/><line style="stroke:#181818;stroke-width:1;" x1="918.1587" x2="1483.9878" y1="297.6875" y2="297.6875"/><text fill="#000000" font-family="sans-serif" font-size="13" lengthAdjust="spacing" textLength="307.0615" x="925.1587" y="292.6216">findByUserAndRestaurant(userId, restaurantId)</text></g><g class="message" data-entity-1="part9" data-entity-2="part4" id="msg7"><polygon fill="#181818" points="929.1587,322.8203,919.1587,326.8203,929.1587,330.8203,925.1587,326.8203" style="stroke:#181818;stroke-width:1;"/><line style="stroke:#181818;stroke-width:1;stroke-dasharray:2,2;" x1="923.1587" x2="1493.9878" y1="326.8203" y2="326.8203"/><text fill="#000000" font-family="sans-serif" font-size="13" lengthAdjust="spacing" textLength="123.7158" x="935.1587" y="321.7544">Optional&lt;Review&gt;</text></g><g class="message" data-entity-1="part4" data-entity-2="part3" id="msg8"><polygon fill="#181818" points="670.0327,351.9531,660.0327,355.9531,670.0327,359.9531,666.0327,355.9531" style="stroke:#181818;stroke-width:1;"/><line style="stroke:#181818;stroke-width:1;stroke-dasharray:2,2;" x1="664.0327" x2="912.1587" y1="355.9531" y2="355.9531"/><text fill="#000000" font-family="sans-serif" font-size="13" lengthAdjust="spacing" textLength="123.7158" x="676.0327" y="350.8872">Optional&lt;Review&gt;</text></g><g class="message" data-entity-1="part3" data-entity-2="part2" id="msg9"><polygon fill="#181818" points="413.0503,381.0859,403.0503,385.0859,413.0503,389.0859,409.0503,385.0859" style="stroke:#181818;stroke-width:1;"/><line style="stroke:#181818;stroke-width:1;stroke-dasharray:2,2;" x1="407.0503" x2="653.0327" y1="385.0859" y2="385.0859"/><text fill="#000000" font-family="sans-serif" font-size="13" lengthAdjust="spacing" textLength="123.7158" x="419.0503" y="380.02">Optional&lt;Review&gt;</text></g><g class="message" data-entity-1="part2" data-entity-2="part2" id="msg10"><line style="stroke:#181818;stroke-width:1;" x1="402.0503" x2="444.0503" y1="414.2188" y2="414.2188"/><line style="stroke:#181818;stroke-width:1;" x1="444.0503" x2="444.0503" y1="414.2188" y2="427.2188"/><line style="stroke:#181818;stroke-width:1;" x1="403.0503" x2="444.0503" y1="427.2188" y2="427.2188"/><polygon fill="#181818" points="413.0503,423.2188,403.0503,427.2188,413.0503,431.2188,409.0503,427.2188" style="stroke:#181818;stroke-width:1;"/><text fill="#000000" font-family="sans-serif" font-size="13" lengthAdjust="spacing" textLength="160.3989" x="409.0503" y="409.1528">hadReview = isPresent()</text></g><path d="M40,442.2188 L109.4512,442.2188 L109.4512,449.3516 L99.4512,459.3516 L40,459.3516 L40,442.2188" fill="#EEEEEE" style="stroke:#000000;stroke-width:1.5;"/><rect fill="none" height="46.2656" style="stroke:#000000;stroke-width:1.5;" width="411.9922" x="40" y="442.2188"/><text fill="#000000" font-family="sans-serif" font-size="13" font-weight="bold" lengthAdjust="spacing" textLength="24.4512" x="55" y="455.2856">opt</text><text fill="#000000" font-family="sans-serif" font-size="11" font-weight="bold" lengthAdjust="spacing" textLength="77.6768" x="124.4512" y="454.4292">[hadReview]</text><g class="message" data-entity-1="part2" data-entity-2="part1" id="msg11"><polygon fill="#181818" points="79.9551,476.4844,69.9551,480.4844,79.9551,484.4844,75.9551,480.4844" style="stroke:#181818;stroke-width:1;"/><line style="stroke:#181818;stroke-width:1;stroke-dasharray:2,2;" x1="73.9551" x2="391.0503" y1="480.4844" y2="480.4844"/><text fill="#000000" font-family="sans-serif" font-size="13" lengthAdjust="spacing" textLength="299.0952" x="85.9551" y="475.4185">explain that writing again replaces the review</text></g><g class="message" data-entity-1="part1" data-entity-2="part2" id="msg12"><polygon fill="#181818" points="380.0503,512.6172,390.0503,516.6172,380.0503,520.6172,384.0503,516.6172" style="stroke:#181818;stroke-width:1;"/><line style="stroke:#181818;stroke-width:1;" x1="68.9551" x2="386.0503" y1="516.6172" y2="516.6172"/><text fill="#000000" font-family="sans-serif" font-size="13" lengthAdjust="spacing" textLength="135.9922" x="75.9551" y="511.5513">enter review content</text></g><g class="message" data-entity-1="part2" data-entity-2="part3" id="msg13"><polygon fill="#181818" points="637.0327,541.75,647.0327,545.75,637.0327,549.75,641.0327,545.75" style="stroke:#181818;stroke-width:1;"/><line style="stroke:#181818;stroke-width:1;" x1="402.0503" x2="643.0327" y1="545.75" y2="545.75"/><text fill="#000000" font-family="sans-serif" font-size="13" lengthAdjust="spacing" textLength="227.9824" x="409.0503" y="540.6841">writeReview(restaurantId, content)</text></g><g class="message" data-entity-1="part3" data-entity-2="part4" id="msg14"><polygon fill="#181818" points="896.1587,570.8828,906.1587,574.8828,896.1587,578.8828,900.1587,574.8828" style="stroke:#181818;stroke-width:1;"/><line style="stroke:#181818;stroke-width:1;" x1="659.0327" x2="902.1587" y1="574.8828" y2="574.8828"/><text fill="#000000" font-family="sans-serif" font-size="13" lengthAdjust="spacing" textLength="227.9824" x="666.0327" y="569.8169">writeReview(restaurantId, content)</text></g><g class="message" data-entity-1="part4" data-entity-2="part8" id="msg15"><polygon fill="#181818" points="1322.9893,600.0156,1332.9893,604.0156,1322.9893,608.0156,1326.9893,604.0156" style="stroke:#181818;stroke-width:1;"/><line style="stroke:#181818;stroke-width:1;" x1="918.1587" x2="1328.9893" y1="604.0156" y2="604.0156"/><text fill="#000000" font-family="sans-serif" font-size="13" lengthAdjust="spacing" textLength="184.666" x="925.1587" y="598.9497">findById(restaurantId.trim())</text></g><g class="message" data-entity-1="part8" data-entity-2="part4" id="msg16"><polygon fill="#181818" points="929.1587,629.1484,919.1587,633.1484,929.1587,637.1484,925.1587,633.1484" style="stroke:#181818;stroke-width:1;"/><line style="stroke:#181818;stroke-width:1;stroke-dasharray:2,2;" x1="923.1587" x2="1338.9893" y1="633.1484" y2="633.1484"/><text fill="#000000" font-family="sans-serif" font-size="13" lengthAdjust="spacing" textLength="148.5034" x="935.1587" y="628.0825">Optional&lt;Restaurant&gt;</text></g><path d="M10,648.1484 L74.4429,648.1484 L74.4429,655.2813 L64.4429,665.2813 L10,665.2813 L10,648.1484" fill="#EEEEEE" style="stroke:#000000;stroke-width:1.5;"/><rect fill="none" height="1321.7969" style="stroke:#000000;stroke-width:1.5;" width="1590.8135" x="10" y="648.1484"/><text fill="#000000" font-family="sans-serif" font-size="13" font-weight="bold" lengthAdjust="spacing" textLength="19.4429" x="25" y="661.2153">alt</text><text fill="#000000" font-family="sans-serif" font-size="11" font-weight="bold" lengthAdjust="spacing" textLength="167.6426" x="89.4429" y="660.3589">[restaurant does not exist]</text><g class="message" data-entity-1="part4" data-entity-2="part3" id="msg17"><polygon fill="#181818" points="670.0327,682.4141,660.0327,686.4141,670.0327,690.4141,666.0327,686.4141" style="stroke:#181818;stroke-width:1;"/><line style="stroke:#181818;stroke-width:1;stroke-dasharray:2,2;" x1="664.0327" x2="912.1587" y1="686.4141" y2="686.4141"/><text fill="#000000" font-family="sans-serif" font-size="13" lengthAdjust="spacing" textLength="225.126" x="676.0327" y="681.3481">&#171;throw&#187; IllegalArgumentException</text></g><g class="message" data-entity-1="part3" data-entity-2="part2" id="msg18"><polygon fill="#181818" points="413.0503,711.5469,403.0503,715.5469,413.0503,719.5469,409.0503,715.5469" style="stroke:#181818;stroke-width:1;"/><line style="stroke:#181818;stroke-width:1;stroke-dasharray:2,2;" x1="407.0503" x2="653.0327" y1="715.5469" y2="715.5469"/><text fill="#000000" font-family="sans-serif" font-size="13" lengthAdjust="spacing" textLength="53.1743" x="419.0503" y="710.481">&#171;throw&#187;</text></g><g class="message" data-entity-1="part2" data-entity-2="part1" id="msg19"><polygon fill="#181818" points="79.9551,740.6797,69.9551,744.6797,79.9551,748.6797,75.9551,744.6797" style="stroke:#181818;stroke-width:1;"/><line style="stroke:#181818;stroke-width:1;stroke-dasharray:2,2;" x1="73.9551" x2="391.0503" y1="744.6797" y2="744.6797"/><text fill="#000000" font-family="sans-serif" font-size="13" lengthAdjust="spacing" textLength="164.2773" x="85.9551" y="739.6138">show exception message</text></g><line style="stroke:#000000;stroke-width:1;stroke-dasharray:2,2;" x1="10" x2="1600.8135" y1="753.6797" y2="753.6797"/><text fill="#000000" font-family="sans-serif" font-size="11" font-weight="bold" lengthAdjust="spacing" textLength="116.4453" x="15" y="763.8901">[restaurant exists]</text><g class="message" data-entity-1="part4" data-entity-2="part5" id="msg20"><polygon fill="#181818" points="1061.062,784.6172,1071.062,788.6172,1061.062,792.6172,1065.062,788.6172" style="stroke:#181818;stroke-width:1;"/><line style="stroke:#181818;stroke-width:1;" x1="913.1587" x2="1067.062" y1="788.6172" y2="788.6172"/><text fill="#000000" font-family="sans-serif" font-size="13" lengthAdjust="spacing" textLength="135.9033" x="920.1587" y="783.5513">requireCurrentUser()</text></g><g class="message" data-entity-1="part5" data-entity-2="part4" id="msg21"><polygon fill="#181818" points="924.1587,813.75,914.1587,817.75,924.1587,821.75,920.1587,817.75" style="stroke:#181818;stroke-width:1;"/><line style="stroke:#181818;stroke-width:1;stroke-dasharray:2,2;" x1="918.1587" x2="1077.062" y1="817.75" y2="817.75"/><text fill="#000000" font-family="sans-serif" font-size="13" lengthAdjust="spacing" textLength="29.6309" x="930.1587" y="812.6841">User</text></g><g class="message" data-entity-1="part4" data-entity-2="part6" id="msg22"><polygon fill="#181818" points="1139.1904,842.8828,1149.1904,846.8828,1139.1904,850.8828,1143.1904,846.8828" style="stroke:#181818;stroke-width:1;"/><line style="stroke:#181818;stroke-width:1;" x1="913.1587" x2="1145.1904" y1="846.8828" y2="846.8828"/><text fill="#000000" font-family="sans-serif" font-size="13" lengthAdjust="spacing" textLength="157.5107" x="920.1587" y="841.8169">hasVisited(restaurantId)</text></g><g class="message" data-entity-1="part6" data-entity-2="part4" id="msg23"><polygon fill="#181818" points="924.1587,872.0156,914.1587,876.0156,924.1587,880.0156,920.1587,876.0156" style="stroke:#181818;stroke-width:1;"/><line style="stroke:#181818;stroke-width:1;stroke-dasharray:2,2;" x1="918.1587" x2="1155.1904" y1="876.0156" y2="876.0156"/><text fill="#000000" font-family="sans-serif" font-size="13" lengthAdjust="spacing" textLength="51.9746" x="930.1587" y="870.9497">boolean</text></g><path d="M20,891.0156 L84.4429,891.0156 L84.4429,898.1484 L74.4429,908.1484 L20,908.1484 L20,891.0156" fill="#EEEEEE" style="stroke:#000000;stroke-width:1.5;"/><rect fill="none" height="1071.9297" style="stroke:#000000;stroke-width:1.5;" width="1570.8135" x="20" y="891.0156"/><text fill="#000000" font-family="sans-serif" font-size="13" font-weight="bold" lengthAdjust="spacing" textLength="19.4429" x="35" y="904.0825">alt</text><text fill="#000000" font-family="sans-serif" font-size="11" font-weight="bold" lengthAdjust="spacing" textLength="200.1914" x="99.4429" y="903.2261">[restaurant is not in Visited list]</text><g class="message" data-entity-1="part4" data-entity-2="part3" id="msg24"><polygon fill="#181818" points="665.0327,925.2813,655.0327,929.2813,665.0327,933.2813,661.0327,929.2813" style="stroke:#181818;stroke-width:1;"/><line style="stroke:#181818;stroke-width:1;stroke-dasharray:2,2;" x1="659.0327" x2="912.1587" y1="929.2813" y2="929.2813"/><text fill="#000000" font-family="sans-serif" font-size="13" lengthAdjust="spacing" textLength="225.126" x="671.0327" y="924.2153">&#171;throw&#187; IllegalArgumentException</text></g><g class="message" data-entity-1="part3" data-entity-2="part2" id="msg25"><polygon fill="#181818" points="413.0503,954.4141,403.0503,958.4141,413.0503,962.4141,409.0503,958.4141" style="stroke:#181818;stroke-width:1;"/><line style="stroke:#181818;stroke-width:1;stroke-dasharray:2,2;" x1="407.0503" x2="653.0327" y1="958.4141" y2="958.4141"/><text fill="#000000" font-family="sans-serif" font-size="13" lengthAdjust="spacing" textLength="53.1743" x="419.0503" y="953.3481">&#171;throw&#187;</text></g><g class="message" data-entity-1="part2" data-entity-2="part1" id="msg26"><polygon fill="#181818" points="79.9551,983.5469,69.9551,987.5469,79.9551,991.5469,75.9551,987.5469" style="stroke:#181818;stroke-width:1;"/><line style="stroke:#181818;stroke-width:1;stroke-dasharray:2,2;" x1="73.9551" x2="391.0503" y1="987.5469" y2="987.5469"/><text fill="#000000" font-family="sans-serif" font-size="13" lengthAdjust="spacing" textLength="164.2773" x="85.9551" y="982.481">show exception message</text></g><line style="stroke:#000000;stroke-width:1;stroke-dasharray:2,2;" x1="20" x2="1590.8135" y1="996.5469" y2="996.5469"/><text fill="#000000" font-family="sans-serif" font-size="11" font-weight="bold" lengthAdjust="spacing" textLength="149.5796" x="25" y="1006.7573">[restaurant was visited]</text><g class="message" data-entity-1="part4" data-entity-2="part9" id="msg27"><polygon fill="#181818" points="1477.9878,1027.4844,1487.9878,1031.4844,1477.9878,1035.4844,1481.9878,1031.4844" style="stroke:#181818;stroke-width:1;"/><line style="stroke:#181818;stroke-width:1;" x1="913.1587" x2="1483.9878" y1="1031.4844" y2="1031.4844"/><text fill="#000000" font-family="sans-serif" font-size="13" lengthAdjust="spacing" textLength="307.0615" x="920.1587" y="1026.4185">findByUserAndRestaurant(userId, restaurantId)</text></g><g class="message" data-entity-1="part9" data-entity-2="part4" id="msg28"><polygon fill="#181818" points="924.1587,1056.6172,914.1587,1060.6172,924.1587,1064.6172,920.1587,1060.6172" style="stroke:#181818;stroke-width:1;"/><line style="stroke:#181818;stroke-width:1;stroke-dasharray:2,2;" x1="918.1587" x2="1493.9878" y1="1060.6172" y2="1060.6172"/><text fill="#000000" font-family="sans-serif" font-size="13" lengthAdjust="spacing" textLength="123.7158" x="930.1587" y="1055.5513">Optional&lt;Review&gt;</text></g><path d="M30,1075.6172 L94.4429,1075.6172 L94.4429,1082.75 L84.4429,1092.75 L30,1092.75 L30,1075.6172" fill="#EEEEEE" style="stroke:#000000;stroke-width:1.5;"/><rect fill="none" height="880.3281" style="stroke:#000000;stroke-width:1.5;" width="1550.8135" x="30" y="1075.6172"/><text fill="#000000" font-family="sans-serif" font-size="13" font-weight="bold" lengthAdjust="spacing" textLength="19.4429" x="45" y="1088.6841">alt</text><text fill="#000000" font-family="sans-serif" font-size="11" font-weight="bold" lengthAdjust="spacing" textLength="142.3877" x="109.4429" y="1087.8276">[review already exists]</text><g class="message" data-entity-1="part4" data-entity-2="part7" id="msg29"><polygon fill="#181818" points="1202.9292,1109.8828,1212.9292,1113.8828,1202.9292,1117.8828,1206.9292,1113.8828" style="stroke:#181818;stroke-width:1;"/><line style="stroke:#181818;stroke-width:1;" x1="913.1587" x2="1208.9292" y1="1113.8828" y2="1113.8828"/><text fill="#000000" font-family="sans-serif" font-size="13" lengthAdjust="spacing" textLength="157.4219" x="920.1587" y="1108.8169">updateContent(content)</text></g><path d="M40,1128.8828 L104.4429,1128.8828 L104.4429,1136.0156 L94.4429,1146.0156 L40,1146.0156 L40,1128.8828" fill="#EEEEEE" style="stroke:#000000;stroke-width:1.5;"/><rect fill="none" height="308.1328" style="stroke:#000000;stroke-width:1.5;" width="1530.8135" x="40" y="1128.8828"/><text fill="#000000" font-family="sans-serif" font-size="13" font-weight="bold" lengthAdjust="spacing" textLength="19.4429" x="55" y="1141.9497">alt</text><text fill="#000000" font-family="sans-serif" font-size="11" font-weight="bold" lengthAdjust="spacing" textLength="172.7021" x="119.4429" y="1141.0933">[content empty or too long]</text><g class="message" data-entity-1="part7" data-entity-2="part4" id="msg30"><polygon fill="#181818" points="924.1587,1163.1484,914.1587,1167.1484,924.1587,1171.1484,920.1587,1167.1484" style="stroke:#181818;stroke-width:1;"/><line style="stroke:#181818;stroke-width:1;stroke-dasharray:2,2;" x1="918.1587" x2="1218.9292" y1="1167.1484" y2="1167.1484"/><text fill="#000000" font-family="sans-serif" font-size="13" lengthAdjust="spacing" textLength="225.126" x="930.1587" y="1162.0825">&#171;throw&#187; IllegalArgumentException</text></g><g class="message" data-entity-1="part4" data-entity-2="part3" id="msg31"><polygon fill="#181818" points="665.0327,1192.2813,655.0327,1196.2813,665.0327,1200.2813,661.0327,1196.2813" style="stroke:#181818;stroke-width:1;"/><line style="stroke:#181818;stroke-width:1;stroke-dasharray:2,2;" x1="659.0327" x2="912.1587" y1="1196.2813" y2="1196.2813"/><text fill="#000000" font-family="sans-serif" font-size="13" lengthAdjust="spacing" textLength="53.1743" x="671.0327" y="1191.2153">&#171;throw&#187;</text></g><g class="message" data-entity-1="part3" data-entity-2="part2" id="msg32"><polygon fill="#181818" points="413.0503,1221.4141,403.0503,1225.4141,413.0503,1229.4141,409.0503,1225.4141" style="stroke:#181818;stroke-width:1;"/><line style="stroke:#181818;stroke-width:1;stroke-dasharray:2,2;" x1="407.0503" x2="653.0327" y1="1225.4141" y2="1225.4141"/><text fill="#000000" font-family="sans-serif" font-size="13" lengthAdjust="spacing" textLength="53.1743" x="419.0503" y="1220.3481">&#171;throw&#187;</text></g><g class="message" data-entity-1="part2" data-entity-2="part1" id="msg33"><polygon fill="#181818" points="79.9551,1250.5469,69.9551,1254.5469,79.9551,1258.5469,75.9551,1254.5469" style="stroke:#181818;stroke-width:1;"/><line style="stroke:#181818;stroke-width:1;stroke-dasharray:2,2;" x1="73.9551" x2="391.0503" y1="1254.5469" y2="1254.5469"/><text fill="#000000" font-family="sans-serif" font-size="13" lengthAdjust="spacing" textLength="164.2773" x="85.9551" y="1249.481">show exception message</text></g><line style="stroke:#000000;stroke-width:1;stroke-dasharray:2,2;" x1="40" x2="1570.8135" y1="1263.5469" y2="1263.5469"/><text fill="#000000" font-family="sans-serif" font-size="11" font-weight="bold" lengthAdjust="spacing" textLength="91.6094" x="45" y="1273.7573">[valid content]</text><g class="message" data-entity-1="part7" data-entity-2="part4" id="msg34"><polygon fill="#181818" points="924.1587,1294.4844,914.1587,1298.4844,924.1587,1302.4844,920.1587,1298.4844" style="stroke:#181818;stroke-width:1;"/><line style="stroke:#181818;stroke-width:1;stroke-dasharray:2,2;" x1="918.1587" x2="1218.9292" y1="1298.4844" y2="1298.4844"/><text fill="#000000" font-family="sans-serif" font-size="13" lengthAdjust="spacing" textLength="54.0566" x="930.1587" y="1293.4185">updated</text></g><g class="message" data-entity-1="part4" data-entity-2="part9" id="msg35"><polygon fill="#181818" points="1477.9878,1323.6172,1487.9878,1327.6172,1477.9878,1331.6172,1481.9878,1327.6172" style="stroke:#181818;stroke-width:1;"/><line style="stroke:#181818;stroke-width:1;" x1="913.1587" x2="1483.9878" y1="1327.6172" y2="1327.6172"/><text fill="#000000" font-family="sans-serif" font-size="13" lengthAdjust="spacing" textLength="83.8525" x="920.1587" y="1322.5513">save(review)</text></g><g class="message" data-entity-1="part9" data-entity-2="part4" id="msg36"><polygon fill="#181818" points="924.1587,1337.6172,914.1587,1341.6172,924.1587,1345.6172,920.1587,1341.6172" style="stroke:#181818;stroke-width:1;"/><line style="stroke:#181818;stroke-width:1;stroke-dasharray:2,2;" x1="918.1587" x2="1493.9878" y1="1341.6172" y2="1341.6172"/></g><g class="message" data-entity-1="part4" data-entity-2="part3" id="msg37"><polygon fill="#181818" points="665.0327,1366.75,655.0327,1370.75,665.0327,1374.75,661.0327,1370.75" style="stroke:#181818;stroke-width:1;"/><line style="stroke:#181818;stroke-width:1;stroke-dasharray:2,2;" x1="659.0327" x2="912.1587" y1="1370.75" y2="1370.75"/><text fill="#000000" font-family="sans-serif" font-size="13" lengthAdjust="spacing" textLength="46.9663" x="671.0327" y="1365.6841">Review</text></g><g class="message" data-entity-1="part3" data-entity-2="part2" id="msg38"><polygon fill="#181818" points="413.0503,1395.8828,403.0503,1399.8828,413.0503,1403.8828,409.0503,1399.8828" style="stroke:#181818;stroke-width:1;"/><line style="stroke:#181818;stroke-width:1;stroke-dasharray:2,2;" x1="407.0503" x2="653.0327" y1="1399.8828" y2="1399.8828"/><text fill="#000000" font-family="sans-serif" font-size="13" lengthAdjust="spacing" textLength="46.9663" x="419.0503" y="1394.8169">Review</text></g><g class="message" data-entity-1="part2" data-entity-2="part1" id="msg39"><polygon fill="#181818" points="79.9551,1425.0156,69.9551,1429.0156,79.9551,1433.0156,75.9551,1429.0156" style="stroke:#181818;stroke-width:1;"/><line style="stroke:#181818;stroke-width:1;stroke-dasharray:2,2;" x1="73.9551" x2="391.0503" y1="1429.0156" y2="1429.0156"/><text fill="#000000" font-family="sans-serif" font-size="13" lengthAdjust="spacing" textLength="155.1367" x="85.9551" y="1423.9497">confirm updated review</text></g><line style="stroke:#000000;stroke-width:1;stroke-dasharray:2,2;" x1="30" x2="1580.8135" y1="1445.0156" y2="1445.0156"/><text fill="#000000" font-family="sans-serif" font-size="11" font-weight="bold" lengthAdjust="spacing" textLength="124.1582" x="35" y="1455.2261">[no existing review]</text><g class="message" data-entity-1="part4" data-entity-2="part9" id="msg40"><polygon fill="#181818" points="1477.9878,1475.9531,1487.9878,1479.9531,1477.9878,1483.9531,1481.9878,1479.9531" style="stroke:#181818;stroke-width:1;"/><line style="stroke:#181818;stroke-width:1;" x1="913.1587" x2="1483.9878" y1="1479.9531" y2="1479.9531"/><text fill="#000000" font-family="sans-serif" font-size="13" lengthAdjust="spacing" textLength="50.9399" x="920.1587" y="1474.8872">findAll()</text></g><g class="message" data-entity-1="part9" data-entity-2="part4" id="msg41"><polygon fill="#181818" points="924.1587,1505.0859,914.1587,1509.0859,924.1587,1513.0859,920.1587,1509.0859" style="stroke:#181818;stroke-width:1;"/><line style="stroke:#181818;stroke-width:1;stroke-dasharray:2,2;" x1="918.1587" x2="1493.9878" y1="1509.0859" y2="1509.0859"/><text fill="#000000" font-family="sans-serif" font-size="13" lengthAdjust="spacing" textLength="91.4761" x="930.1587" y="1504.02">List&lt;Review&gt;</text></g><g class="message" data-entity-1="part4" data-entity-2="part4" id="msg42"><line style="stroke:#181818;stroke-width:1;" x1="913.1587" x2="955.1587" y1="1538.2188" y2="1538.2188"/><line style="stroke:#181818;stroke-width:1;" x1="955.1587" x2="955.1587" y1="1538.2188" y2="1551.2188"/><line style="stroke:#181818;stroke-width:1;" x1="914.1587" x2="955.1587" y1="1551.2188" y2="1551.2188"/><polygon fill="#181818" points="924.1587,1547.2188,914.1587,1551.2188,924.1587,1555.2188,920.1587,1551.2188" style="stroke:#181818;stroke-width:1;"/><text fill="#000000" font-family="sans-serif" font-size="13" lengthAdjust="spacing" textLength="98.2236" x="920.1587" y="1533.1528">nextReviewId()</text></g><g class="message" data-entity-1="part4" data-entity-2="part7" id="msg43"><polygon fill="#181818" points="1177.042,1591.4844,1187.042,1595.4844,1177.042,1599.4844,1181.042,1595.4844" style="stroke:#181818;stroke-width:1;"/><line style="stroke:#181818;stroke-width:1;" x1="913.1587" x2="1183.042" y1="1595.4844" y2="1595.4844"/><text fill="#000000" font-family="sans-serif" font-size="13" lengthAdjust="spacing" textLength="147.7417" x="920.1587" y="1575.2856">new Review(id, userId,</text><text fill="#000000" font-family="sans-serif" font-size="13" lengthAdjust="spacing" textLength="143.2603" x="920.1587" y="1590.4185">restaurantId, content)</text></g><text fill="#000000" font-family="sans-serif" font-size="14" lengthAdjust="spacing" textLength="55.7744" x="1189.042" y="1604.2139">review :</text><text fill="#000000" font-family="sans-serif" font-size="14" lengthAdjust="spacing" textLength="50.5791" x="1191.6396" y="1620.5107">Review</text><ellipse cx="1219.9292" cy="1575.2188" fill="#E2E2F0" rx="12" ry="12" style="stroke:#181818;stroke-width:0.5;"/><line style="stroke:#181818;stroke-width:0.5;" x1="1207.9292" x2="1231.9292" y1="1589.2188" y2="1589.2188"/><path d="M40,1640.8125 L104.4429,1640.8125 L104.4429,1647.9453 L94.4429,1657.9453 L40,1657.9453 L40,1640.8125" fill="#EEEEEE" style="stroke:#000000;stroke-width:1.5;"/><rect fill="none" height="308.1328" style="stroke:#000000;stroke-width:1.5;" width="1530.8135" x="40" y="1640.8125"/><text fill="#000000" font-family="sans-serif" font-size="13" font-weight="bold" lengthAdjust="spacing" textLength="19.4429" x="55" y="1653.8794">alt</text><text fill="#000000" font-family="sans-serif" font-size="11" font-weight="bold" lengthAdjust="spacing" textLength="172.7021" x="119.4429" y="1653.0229">[content empty or too long]</text><g class="message" data-entity-1="part7" data-entity-2="part4" id="msg45"><polygon fill="#181818" points="924.1587,1675.0781,914.1587,1679.0781,924.1587,1683.0781,920.1587,1679.0781" style="stroke:#181818;stroke-width:1;"/><line style="stroke:#181818;stroke-width:1;stroke-dasharray:2,2;" x1="918.1587" x2="1218.9292" y1="1679.0781" y2="1679.0781"/><text fill="#000000" font-family="sans-serif" font-size="13" lengthAdjust="spacing" textLength="225.126" x="930.1587" y="1674.0122">&#171;throw&#187; IllegalArgumentException</text></g><line style="stroke:#A80036;stroke-width:2;" x1="1210.9292" x2="1228.9292" y1="1670.0781" y2="1688.0781"/><line style="stroke:#A80036;stroke-width:2;" x1="1210.9292" x2="1228.9292" y1="1688.0781" y2="1670.0781"/><g class="message" data-entity-1="part4" data-entity-2="part3" id="msg46"><polygon fill="#181818" points="665.0327,1704.2109,655.0327,1708.2109,665.0327,1712.2109,661.0327,1708.2109" style="stroke:#181818;stroke-width:1;"/><line style="stroke:#181818;stroke-width:1;stroke-dasharray:2,2;" x1="659.0327" x2="912.1587" y1="1708.2109" y2="1708.2109"/><text fill="#000000" font-family="sans-serif" font-size="13" lengthAdjust="spacing" textLength="53.1743" x="671.0327" y="1703.145">&#171;throw&#187;</text></g><g class="message" data-entity-1="part3" data-entity-2="part2" id="msg47"><polygon fill="#181818" points="413.0503,1733.3438,403.0503,1737.3438,413.0503,1741.3438,409.0503,1737.3438" style="stroke:#181818;stroke-width:1;"/><line style="stroke:#181818;stroke-width:1;stroke-dasharray:2,2;" x1="407.0503" x2="653.0327" y1="1737.3438" y2="1737.3438"/><text fill="#000000" font-family="sans-serif" font-size="13" lengthAdjust="spacing" textLength="53.1743" x="419.0503" y="1732.2778">&#171;throw&#187;</text></g><g class="message" data-entity-1="part2" data-entity-2="part1" id="msg48"><polygon fill="#181818" points="79.9551,1762.4766,69.9551,1766.4766,79.9551,1770.4766,75.9551,1766.4766" style="stroke:#181818;stroke-width:1;"/><line style="stroke:#181818;stroke-width:1;stroke-dasharray:2,2;" x1="73.9551" x2="391.0503" y1="1766.4766" y2="1766.4766"/><text fill="#000000" font-family="sans-serif" font-size="13" lengthAdjust="spacing" textLength="164.2773" x="85.9551" y="1761.4106">show exception message</text></g><line style="stroke:#000000;stroke-width:1;stroke-dasharray:2,2;" x1="40" x2="1570.8135" y1="1775.4766" y2="1775.4766"/><text fill="#000000" font-family="sans-serif" font-size="11" font-weight="bold" lengthAdjust="spacing" textLength="91.6094" x="45" y="1785.687">[valid content]</text><g class="message" data-entity-1="part7" data-entity-2="part4" id="msg49"><polygon fill="#181818" points="924.1587,1806.4141,914.1587,1810.4141,924.1587,1814.4141,920.1587,1810.4141" style="stroke:#181818;stroke-width:1;"/><line style="stroke:#181818;stroke-width:1;stroke-dasharray:2,2;" x1="918.1587" x2="1218.9292" y1="1810.4141" y2="1810.4141"/><text fill="#000000" font-family="sans-serif" font-size="13" lengthAdjust="spacing" textLength="49.8037" x="930.1587" y="1805.3481">created</text></g><g class="message" data-entity-1="part4" data-entity-2="part9" id="msg50"><polygon fill="#181818" points="1477.9878,1835.5469,1487.9878,1839.5469,1477.9878,1843.5469,1481.9878,1839.5469" style="stroke:#181818;stroke-width:1;"/><line style="stroke:#181818;stroke-width:1;" x1="913.1587" x2="1483.9878" y1="1839.5469" y2="1839.5469"/><text fill="#000000" font-family="sans-serif" font-size="13" lengthAdjust="spacing" textLength="83.8525" x="920.1587" y="1834.481">save(review)</text></g><g class="message" data-entity-1="part9" data-entity-2="part4" id="msg51"><polygon fill="#181818" points="924.1587,1849.5469,914.1587,1853.5469,924.1587,1857.5469,920.1587,1853.5469" style="stroke:#181818;stroke-width:1;"/><line style="stroke:#181818;stroke-width:1;stroke-dasharray:2,2;" x1="918.1587" x2="1493.9878" y1="1853.5469" y2="1853.5469"/></g><g class="message" data-entity-1="part4" data-entity-2="part3" id="msg52"><polygon fill="#181818" points="665.0327,1878.6797,655.0327,1882.6797,665.0327,1886.6797,661.0327,1882.6797" style="stroke:#181818;stroke-width:1;"/><line style="stroke:#181818;stroke-width:1;stroke-dasharray:2,2;" x1="659.0327" x2="912.1587" y1="1882.6797" y2="1882.6797"/><text fill="#000000" font-family="sans-serif" font-size="13" lengthAdjust="spacing" textLength="46.9663" x="671.0327" y="1877.6138">Review</text></g><g class="message" data-entity-1="part3" data-entity-2="part2" id="msg53"><polygon fill="#181818" points="413.0503,1907.8125,403.0503,1911.8125,413.0503,1915.8125,409.0503,1911.8125" style="stroke:#181818;stroke-width:1;"/><line style="stroke:#181818;stroke-width:1;stroke-dasharray:2,2;" x1="407.0503" x2="653.0327" y1="1911.8125" y2="1911.8125"/><text fill="#000000" font-family="sans-serif" font-size="13" lengthAdjust="spacing" textLength="46.9663" x="419.0503" y="1906.7466">Review</text></g><g class="message" data-entity-1="part2" data-entity-2="part1" id="msg54"><polygon fill="#181818" points="79.9551,1936.9453,69.9551,1940.9453,79.9551,1944.9453,75.9551,1940.9453" style="stroke:#181818;stroke-width:1;"/><line style="stroke:#181818;stroke-width:1;stroke-dasharray:2,2;" x1="73.9551" x2="391.0503" y1="1940.9453" y2="1940.9453"/><text fill="#000000" font-family="sans-serif" font-size="13" lengthAdjust="spacing" textLength="139.7627" x="85.9551" y="1935.8794">confirm saved review</text></g><?plantuml-src xLVBRXen5DtxAwoiG4hw0LMAHDCka1erIjLsquqpDc3LsDJs3F3tlTUUXptC04aMLQMm262V-_0vnvU9bru9-g2O5mzCqHlwqqelgB7q-vR38cNqKLHIx0XPIoxeqXZ_PFR4_PPwoopRKBTctEoaNj4bKquGmWgFuKvOycHApPazqAkDq2Lz_qi_CW_GU_XsHPcZk4mAexqrYbxPgWYOKF0khYfX0nBsKg3hWD-4hMGXQfJhKApqQuJDuJq5uJeXGdlfeRCI6aKKDXosSQ7TjQ54LonMgHa1WjWJSm9XpZ-AhOb0vrbfcGuhJW8RXpeiWh8upDH5Dj-og6QH4EoHtineP9D2a_3TjlNeuXEoBoiKBb1B0X8Y0hLq9Vpz8LQPT64BFkt2a6U2w13aBWro6EGmAB8ENVqffHLtfRNG9ZO-IGA2105vqzO9Zk4YnpHPKwBeKch-yO3ukUOTtHDKRi6lwLYN7PD9kgw1hrilZMRgDXvsbZQJgX1QQZaz6HLvAGAy5kqqlkWag_5mlIAIVg3IFS3PW4_WafYjxpO9XLUCXD3W4_37VgkOrDIlcQSxkDXuIzaAbwo0hK8us6iE1vxdenOB3U3DWeM-gp2p6338THDmqbxFYtQ98vehL_jXmRFuTzxApMIQwL_VlpPqKFicHK__EfOmvTChnmsGg8q7igK3Qb27t22tjtvjpMusemkOPYkcvdPL0eF-yxuGeMm8wjic9igiqsOw3YZ8e0FSskoWixeER3l7LZ2Z1Kpgz1IXUPTqV_eU8oo_fs5bu3xt6ertEgaIfo_usFsGCFG4xusOh5BPP0nHNQKdOvHWHpG6UCoGQoQZOd0Dwg9KjTgzMByn3S_gEARbS_H4R5_J7VnuLF5ylQEzQfmscOP6Orlbel4wTFXapBQ5WdXX035b1UE7pAw39uDoPNX-kOipPDBEaZIaLpRFXsNhA2esMtWOWASQRmnLHgzoQ7VavBZFiCqe4GDbXgrvCbNbXlASSUGvPxx4eSqhEBLYIlBk9-Kidr5F_cBIUgPth1AJk38z2ZZbxN6FdsyjD_Qmfidl-Ii4lIJB1Mg2F4jfDmtv3SEPc3ePBq5PRU85nQUD8Kd6Pj1SgSd92tgam-2S-GAbZsRCXN8qhOL4Mknzp0EF5jCSMC0WwXntQWvf-5i_taWOflLG_QL7ddN-h_bqZ73mlzVXRNmTqHqDypQ-_iduGhP6XrV_Cxw7ePPKmyH_0G00?></g></svg>